<svg width="607" height="92" viewBox="0 0 607 92" fill="none" xmlns="http://www.w3.org/2000/svg">
<g clip-path="url(#clip0_4090_1782)">
<path fill-rule="evenodd" clip-rule="evenodd" d="M83.4323 0H6.66114C3.00277 0 -0.000366211 3.00314 -0.000366211 6.66151V83.4326C-0.000366211 87.1456 3.00277 90.1487 6.66114 90.1487H19.9295C23.0965 89.9849 25.1714 88.7837 26.2088 86.4358C28.7752 78.4092 36.3103 72.6213 45.2105 72.6213C54.1107 72.6213 61.6459 78.4092 64.2668 86.4358C65.3042 88.7837 67.3791 89.9849 70.5461 90.1487H83.4323C87.1452 90.1487 90.1484 87.1456 90.1484 83.4326V6.66151C90.1484 3.00314 87.1452 0 83.4323 0ZM63.3385 53.8381H26.7549C25.772 53.8381 25.1168 52.746 25.6082 51.8178L43.9 20.1483C44.4461 19.2747 45.7019 19.2747 46.248 20.1483L64.5398 51.8178C65.0312 52.746 64.376 53.8381 63.3385 53.8381Z" fill="#20E492"/>
</g>
<g clip-path="url(#clip1_4090_1782)">
<path d="M481.666 31.2826V36.7444C481.666 38.8198 481.939 40.9499 482.376 42.9707L483.032 45.8108C483.141 46.2478 482.813 46.6301 482.376 46.6301H481.011C481.011 46.6301 480.465 46.4662 480.355 46.1385C477.734 37.1813 469.76 30.0811 456.761 30.0811C439.447 30.0811 428.25 43.1892 428.25 60.6121C428.25 78.035 439.447 91.1978 456.761 91.1978C469.76 91.1978 477.734 84.1522 480.355 75.2496C480.465 74.9765 480.683 74.758 481.011 74.758H482.376C482.813 74.758 483.141 75.1949 483.032 75.5773L482.376 78.472C481.939 80.4928 481.666 82.5683 481.666 84.6437V90.0508H491.388V31.2826H481.666ZM459.328 82.9506C447.148 82.9506 437.918 76.4511 437.918 60.6121C437.918 44.7731 447.148 38.4921 459.328 38.4921C471.507 38.4921 481.666 44.9916 481.666 60.6121C481.666 76.2327 471.398 82.9506 459.328 82.9506Z" fill="white"/>
<path d="M158.333 6.65088H138.234L111.417 89.9969H121.084L129.986 62.0874H166.58L175.483 89.9969H185.204L158.333 6.65088ZM134.192 49.0885L134.465 48.2693L146.699 9.81868C146.699 9.81868 147.082 9.38174 147.355 9.38174H149.212C149.212 9.38174 149.758 9.5456 149.867 9.81868L161.227 45.4292L162.374 49.0885L163.849 53.8402L164.013 54.3318H132.444L132.608 53.8402L134.192 49.0885Z" fill="white"/>
<path d="M232.282 30.0269C219.065 30.0269 211.2 37.1272 208.524 46.139C208.524 46.4121 208.196 46.6306 207.923 46.6306H206.503C206.066 46.6306 205.793 46.1936 205.902 45.8113L206.612 42.5343C207.049 40.7865 207.213 38.9295 207.213 37.1272V3.10059H197.546V89.9967H207.213V85.1904C207.213 82.7326 206.94 80.2748 206.394 77.8717L205.902 75.5777C205.793 75.1408 206.066 74.7585 206.503 74.7585H207.923C207.923 74.7585 208.469 74.9223 208.524 75.25C211.2 84.098 219.065 91.1983 232.282 91.1983C249.323 91.1983 260.192 78.0355 260.192 60.558C260.192 43.0805 249.323 30.0269 232.282 30.0269ZM229.333 82.8965C217.262 82.8965 207.213 76.1785 207.213 60.558C207.213 44.9374 217.262 38.438 229.333 38.438C241.403 38.438 250.524 45.0467 250.524 60.558C250.524 76.0693 241.512 82.8965 229.333 82.8965Z" fill="white"/>
<path d="M320.22 74.7589C320.22 83.6069 314.649 91.1987 297.062 91.1987C278 91.1987 270.19 82.2961 270.19 68.3687H279.912C279.912 78.5275 285.811 83.2792 297.171 83.2792C306.292 83.2792 310.552 81.1491 310.552 75.0866C310.552 67.4402 302.578 66.1294 293.02 63.18C281.933 59.6299 272.921 56.189 272.921 45.5387C272.921 36.1991 280.841 30.0273 294.331 30.0273C312.628 30.0273 318.199 40.0769 318.199 49.7988H308.532C308.532 41.8793 303.671 37.9469 294.331 37.9469C287.832 37.9469 282.643 39.9677 282.643 45.3202C282.643 50.6727 286.739 52.6389 296.243 55.6975C307.822 59.5207 320.22 62.0877 320.22 74.7589Z" fill="white"/>
<path d="M370.137 82.8962V91.198H347.799C342.228 91.5257 339.606 88.5764 339.606 83.1693V39.6393H326.716V31.2282H339.606V13.1499H349.437V31.2282H367.734V39.6393H349.437V82.8962H370.137Z" fill="white"/>
<path d="M424.267 30.1905V38.547H393.135V89.9965H383.468V38.2193C383.468 32.6483 386.035 29.9174 391.606 30.1905H424.267Z" fill="white"/>
<path d="M548.352 67.7679H558.183C556.654 84.8085 542.125 91.1987 530.765 91.1987C511.704 91.1987 500.726 77.599 500.726 60.5584C500.726 43.5178 511.704 30.0273 530.765 30.0273C542.125 30.0273 556.654 36.5268 558.183 53.5674H548.352C546.713 42.3709 539.285 38.4384 530.765 38.4384C516.783 38.4384 510.393 48.488 510.393 60.5584C510.393 72.6288 516.783 82.8969 530.765 82.8969C539.285 82.8969 546.713 78.9098 548.352 67.7679Z" fill="white"/>
<path d="M606.954 82.8962V91.198H584.615C579.044 91.5257 576.477 88.5764 576.477 83.1693V39.6393H563.588V31.2282H576.477V13.1499H586.254V31.2282H604.605V39.6393H586.254V82.8962H606.954Z" fill="white"/>
</g>
<defs>
<clipPath id="clip0_4090_1782">
<rect width="90.1487" height="90.1487" fill="white"/>
</clipPath>
<clipPath id="clip1_4090_1782">
<rect width="495.543" height="88.0977" fill="white" transform="translate(111.417 3.10059)"/>
</clipPath>
</defs>
</svg>
